<svg width="236" height="62" viewBox="0 0 236 62" fill="none" xmlns="http://www.w3.org/2000/svg">
<g clip-path="url(#clip0_155_4447)">
<mask id="mask0_155_4447" style="mask-type:luminance" maskUnits="userSpaceOnUse" x="0" y="0" width="236" height="62">
<path d="M235.523 0H0V61.115H235.523V0Z" fill="white"/>
</mask>
<g mask="url(#mask0_155_4447)">
<path d="M34.3744 57.793C28.8894 57.7886 23.5291 56.1567 18.9722 53.1039C14.4153 50.051 10.8668 45.7147 8.77597 40.6438C6.68518 35.573 6.14615 29.9957 7.22714 24.6183C8.30812 19.2409 10.9605 14.3052 14.8484 10.4362C18.7363 6.56722 23.6849 3.93896 29.0675 2.88422C34.4501 1.82949 40.0247 2.39573 45.0853 4.51124C50.1459 6.62675 54.4649 10.1964 57.4954 14.7681C60.526 19.3399 62.1317 24.7081 62.1094 30.193C62.0877 37.5297 59.1543 44.5577 53.9538 49.7329C48.7533 54.9081 41.7111 57.8071 34.3744 57.793ZM34.3354 41.731C36.7114 41.731 38.9844 41.744 41.2564 41.705C41.4334 41.705 41.7094 41.356 41.7564 41.129C42.1924 39.18 42.6094 37.229 42.9814 35.264C43.1004 34.634 43.3444 34.428 44.0084 34.423C46.199 34.4845 48.3914 34.4077 50.5724 34.193C52.6421 33.9755 54.5696 33.0377 56.0181 31.5434C57.4667 30.0492 58.3442 28.0935 58.4974 26.018C58.8584 21.387 56.7644 17.635 51.1714 17.677C47.4767 17.7043 43.782 17.7013 40.0874 17.668C39.4944 17.668 39.2874 17.843 39.1734 18.423C37.8854 24.7 36.5624 30.971 35.2514 37.244C34.9464 38.705 34.6514 40.168 34.3314 41.731" fill="black"/>
<path d="M30.3601 60.356C13.7221 60.83 -0.240858 46.989 -0.00085765 29.967C0.039125 26.0147 0.863728 22.1098 2.42509 18.4787C3.98645 14.8477 6.25346 11.563 9.09455 8.81524C11.9356 6.06746 15.2942 3.91136 18.9753 2.47208C22.6564 1.03281 26.5867 0.33902 30.5381 0.430995C23.295 1.40405 16.6492 4.96691 11.8296 10.4607C7.01006 15.9545 4.34281 23.0077 4.32111 30.3159C4.2994 37.6241 6.9247 44.6929 11.7115 50.2153C16.4983 55.7377 23.1229 59.3399 30.3601 60.356Z" fill="#F45E32"/>
<path d="M38.4731 0.429978C42.4197 0.39886 46.3335 1.14787 49.9896 2.63398C53.6458 4.12008 56.9722 6.31399 59.7779 9.08964C62.5836 11.8653 64.8132 15.168 66.3385 18.808C67.8638 22.4479 68.6549 26.3534 68.6662 30.3C68.6775 34.2467 67.9089 38.1567 66.4045 41.8053C64.9001 45.454 62.6895 48.7694 59.8998 51.5611C57.1102 54.3529 53.7963 56.5658 50.1487 58.0729C46.5012 59.58 42.5918 60.3514 38.6451 60.343C45.8872 59.3358 52.5189 55.7382 57.3119 50.2165C62.1049 44.6948 64.7344 37.6231 64.7134 30.3114C64.6924 22.9997 62.0224 15.9432 57.1978 10.4492C52.3731 4.95506 45.7209 1.39557 38.4731 0.429978Z" fill="#F45E32"/>
<path d="M87.6221 48.457L82.332 56.474L77.087 48.525L76.923 48.559V60.698H72.8101V41.469C74.2331 41.469 75.617 41.444 76.998 41.494C77.221 41.502 77.4911 41.809 77.6381 42.041C79.0321 44.248 80.403 46.469 81.782 48.685C81.957 48.967 82.139 49.244 82.374 49.611C82.574 49.311 82.747 49.078 82.901 48.83C84.301 46.591 85.707 44.362 87.067 42.102C87.1746 41.8824 87.3481 41.7018 87.5632 41.5855C87.7783 41.4692 88.0243 41.4228 88.267 41.453C89.322 41.49 90.3791 41.474 91.4341 41.459C91.8341 41.454 92.048 41.559 92.047 42.017C92.0343 48.1583 92.0273 54.3 92.026 60.442C92.0083 60.5355 91.9777 60.626 91.9351 60.711H87.854V48.511L87.621 48.457" fill="white"/>
<path d="M182.23 41.5329V60.743C181.106 60.743 180.005 60.7809 178.91 60.7149C178.655 60.6999 178.372 60.3709 178.184 60.1239C175.466 56.5746 172.755 53.0193 170.052 49.458C169.852 49.2 169.652 48.9499 169.308 48.5199V60.698H165.191V41.47C166.381 41.47 167.57 41.435 168.753 41.498C169.006 41.512 169.287 41.8489 169.477 42.0979C172.128 45.5586 174.771 49.0253 177.407 52.498C177.572 52.714 177.751 52.92 178.067 53.308V41.5329H182.23Z" fill="white"/>
<path d="M140.218 60.717H136.025V41.517H140.186V49.066H148.046V41.529H152.236V60.709H148.095V53.065H140.218V60.717Z" fill="white"/>
<path d="M94.7462 36.684H90.6753V17.473H94.8192V25.03H102.712V17.455H106.871V36.646H102.727V30.646C102.727 28.953 102.727 28.953 101.005 28.953C99.2002 28.953 97.3942 28.972 95.5892 28.942C95.0102 28.932 94.8222 29.116 94.8282 29.7C94.8502 31.95 94.8282 34.2 94.8192 36.449C94.8038 36.5309 94.7801 36.611 94.7483 36.688" fill="white"/>
<path d="M114.8 60.751C113.485 60.751 112.183 60.775 110.883 60.726C110.683 60.718 110.405 60.415 110.303 60.186C109.831 59.122 109.437 58.023 108.946 56.968C108.867 56.8285 108.758 56.7087 108.626 56.6178C108.494 56.5268 108.343 56.467 108.184 56.443C105.852 56.402 103.519 56.431 101.184 56.409C100.995 56.3837 100.802 56.4289 100.644 56.536C100.485 56.6431 100.372 56.8046 100.324 56.99C99.9096 58.078 99.4686 59.1557 99.0012 60.223C98.9082 60.435 98.6563 60.723 98.4683 60.723C97.1993 60.767 95.9282 60.746 94.5322 60.746C94.6712 60.388 94.7612 60.136 94.8662 59.89C97.3952 53.945 99.9342 48.005 102.439 42.05C102.504 41.8138 102.653 41.6099 102.86 41.4779C103.066 41.346 103.314 41.2954 103.555 41.336C104.414 41.377 105.278 41.317 106.136 41.366C106.273 41.3773 106.406 41.419 106.525 41.4882C106.644 41.5575 106.746 41.6524 106.823 41.766C109.49 47.982 112.142 54.2056 114.779 60.437C114.799 60.538 114.806 60.6413 114.798 60.744M107.236 52.689L104.661 46.389L102.082 52.689H107.236Z" fill="white"/>
<path d="M76.9713 30.994V36.648H72.8193V17.532C72.8423 17.511 72.8833 17.442 72.9193 17.442C75.9983 17.472 79.0903 17.342 82.1523 17.587C82.9626 17.6273 83.7568 17.8277 84.4893 18.1765C85.2217 18.5253 85.8779 19.0156 86.4199 19.6192C86.962 20.2228 87.3793 20.9277 87.6476 21.6933C87.9159 22.4589 88.0299 23.2701 87.9833 24.08C88.0568 25.7256 87.4895 27.3357 86.4006 28.5717C85.3117 29.8078 83.7861 30.5735 82.1443 30.708C80.4723 30.908 78.7753 30.9 76.9673 30.993M77.0063 21.156V27.056C78.4569 27.1221 79.91 27.1107 81.3594 27.022C82.0429 26.9295 82.6666 26.5833 83.1066 26.0522C83.5466 25.521 83.7707 24.8438 83.7344 24.155C83.7798 23.4788 83.5603 22.8114 83.1224 22.2941C82.6846 21.7768 82.0627 21.45 81.3883 21.383C79.9723 21.19 78.5253 21.227 77.0063 21.16" fill="white"/>
<path d="M161.616 17.532C161.716 17.479 161.768 17.432 161.816 17.432C164.868 17.466 167.933 17.341 170.968 17.585C171.778 17.6266 172.572 17.8275 173.304 18.1763C174.036 18.525 174.692 19.0147 175.234 19.6174C175.777 20.2201 176.195 20.9239 176.465 21.6884C176.735 22.453 176.852 23.2633 176.808 24.073C176.884 25.7191 176.317 27.3302 175.229 28.5676C174.141 29.805 172.616 30.5723 170.973 30.708C169.302 30.908 167.605 30.901 165.834 30.992V36.648H161.615L161.616 17.532ZM165.816 27.06C167.256 27.1237 168.698 27.113 170.136 27.028C170.824 26.9515 171.456 26.6128 171.901 26.0824C172.345 25.552 172.568 24.8706 172.523 24.18C172.559 23.8447 172.527 23.5057 172.43 23.1829C172.332 22.8601 172.172 22.5599 171.957 22.3C171.742 22.0402 171.478 21.8258 171.179 21.6695C170.88 21.5133 170.553 21.4182 170.217 21.39C168.752 21.2958 167.284 21.2842 165.817 21.355L165.816 27.06Z" fill="white"/>
<path d="M208.453 43.631L206.318 46.723C205.318 46.245 204.396 45.751 203.432 45.356C202.411 44.8891 201.262 44.7833 200.173 45.056C199.812 45.1063 199.477 45.2747 199.221 45.535C198.966 45.7952 198.803 46.1328 198.759 46.495C198.696 46.8714 198.773 47.258 198.977 47.5807C199.181 47.9034 199.497 48.1395 199.864 48.244C200.878 48.614 201.937 48.863 202.943 49.249C204.388 49.7139 205.785 50.3149 207.116 51.044C208.928 52.178 209.216 54.094 208.95 56.067C208.834 57.0407 208.447 57.9624 207.835 58.7282C207.223 59.494 206.408 60.0734 205.484 60.401C201.959 61.855 196.521 60.71 193.811 57.92L196.232 55.02C196.739 55.361 197.209 55.692 197.693 55.999C199.181 57.002 200.976 57.4452 202.76 57.25C203.117 57.2067 203.466 57.1121 203.796 56.969C204.099 56.8578 204.36 56.6567 204.545 56.3927C204.73 56.1287 204.83 55.8144 204.831 55.492C204.863 55.1832 204.794 54.8722 204.632 54.6069C204.471 54.3415 204.227 54.1364 203.938 54.023C202.889 53.596 201.802 53.266 200.73 52.897C199.63 52.518 198.503 52.207 197.438 51.75C196.538 51.3926 195.773 50.7606 195.252 49.9438C194.732 49.127 194.482 48.167 194.538 47.2C194.46 46.2062 194.672 45.211 195.149 44.3356C195.626 43.4603 196.347 42.7426 197.225 42.27C200.725 40.403 204.142 41.051 207.439 42.927C207.772 43.117 208.073 43.362 208.456 43.627" fill="white"/>
<path d="M192.791 19.597L190.737 22.57C189.285 22.006 187.977 21.398 186.607 21.006C185.876 20.8629 185.122 20.8834 184.399 21.066C184.058 21.1321 183.746 21.3073 183.513 21.5653C183.279 21.8233 183.135 22.1501 183.103 22.4968C183.071 22.8434 183.152 23.1911 183.334 23.4878C183.516 23.7844 183.79 24.014 184.113 24.142C185.199 24.553 186.337 24.826 187.425 25.234C188.776 25.6368 190.079 26.1864 191.31 26.873C194.473 28.951 193.994 34.165 190.531 36.009C188.312 37.0973 185.767 37.3218 183.391 36.639C181.433 36.1923 179.623 35.251 178.132 33.905L180.578 30.974C181.078 31.31 181.555 31.633 182.036 31.941C183.451 32.9016 185.149 33.3546 186.853 33.226C187.35 33.1901 187.835 33.0601 188.283 32.843C188.553 32.725 188.784 32.5325 188.949 32.288C189.114 32.0435 189.206 31.7572 189.214 31.4625C189.222 31.1677 189.146 30.8768 188.995 30.6237C188.844 30.3705 188.624 30.1657 188.36 30.033C187.351 29.5811 186.312 29.1995 185.25 28.891C184.024 28.458 182.762 28.109 181.577 27.586C177.995 26.004 178.334 20.908 180.559 18.947C182.547 17.195 184.898 16.961 187.359 17.266C189.353 17.5126 191.236 18.321 192.787 19.597" fill="white"/>
<path d="M132.912 44.161L130.317 47.144C126.198 44.413 123.397 44.378 121.149 46.991C120.181 48.2221 119.678 49.7554 119.729 51.3208C119.78 52.8863 120.382 54.3835 121.428 55.549C123.62 57.91 126.628 57.741 130.311 55.095L132.989 57.706C129.689 61.848 122.6 62.306 118.52 58.591C117.517 57.6481 116.714 56.5125 116.16 55.252C115.605 53.9915 115.311 52.6321 115.295 51.2552C115.279 49.8783 115.54 48.5123 116.065 47.239C116.589 45.9657 117.364 44.8114 118.345 43.845C122.251 40.127 129.651 40.272 132.912 44.161Z" fill="white"/>
<path d="M226.325 41.52V45.359H220.536V60.689H216.319V45.382H210.475V41.52H226.325Z" fill="white"/>
<path d="M140.509 32.909H150.098V36.661H136.346V17.461H140.509V32.909Z" fill="white"/>
<path d="M133.597 32.87V36.652H119.833V17.47H123.971V32.87H133.597Z" fill="white"/>
<path d="M115.376 17.418H111.19V36.664H115.376V17.418Z" fill="white"/>
<path d="M157.225 17.446H153.038V36.693H157.225V17.446Z" fill="white"/>
<path d="M160.725 41.431H156.54V60.676H160.725V41.431Z" fill="white"/>
<path d="M190.734 41.462H186.553V60.703H190.734V41.462Z" fill="white"/>
<path d="M105.305 6.72099H98.084V11.775C98.395 11.795 98.684 11.83 98.976 11.83C101.141 11.83 103.306 11.82 105.471 11.85C105.722 11.85 105.971 12.095 106.218 12.226C105.987 12.375 105.758 12.652 105.525 12.655C102.916 12.686 100.307 12.675 97.698 12.673C97.536 12.673 97.3739 12.653 97.1689 12.639V0.0759888H106.064V0.833989H98.088V5.82599H105.214L105.305 6.72599" fill="white"/>
<path d="M84.5892 6.77699V12.609C84.1092 12.69 83.7002 12.819 83.7022 12.127C83.7142 8.18166 83.7225 4.23599 83.7272 0.289993C83.7437 0.214426 83.7696 0.141202 83.8042 0.0719929L84.5822 -0.00100708V5.81999H92.7382V0.0739929L93.5272 0.0189929C93.5832 0.139993 93.6472 0.212993 93.6472 0.285993C93.6592 4.23099 93.6602 8.17699 93.6782 12.123C93.6782 12.735 93.3322 12.715 92.8192 12.623V6.77699H84.5892Z" fill="white"/>
<path d="M75.8472 0.846003C74.4932 0.846003 73.2782 0.825003 72.0642 0.855003C71.4882 0.869003 71.3002 0.666003 71.5122 0.00900269H81.0272C81.2602 0.609003 81.1342 0.866003 80.4942 0.853003C79.2792 0.828003 78.0642 0.846003 76.7482 0.846003V12.62L75.8482 12.675L75.8472 0.846003Z" fill="white"/>
<path d="M34.3311 41.732C34.6511 40.169 34.9461 38.706 35.2511 37.245C36.5621 30.972 37.8841 24.702 39.1731 18.424C39.2921 17.843 39.4941 17.664 40.0871 17.669C43.7817 17.697 47.4764 17.7 51.1711 17.678C56.7641 17.636 58.8581 21.388 58.4971 26.019C58.3439 28.0945 57.4664 30.0501 56.0178 31.5444C54.5693 33.0386 52.6418 33.9764 50.5721 34.194C48.3911 34.4087 46.1987 34.4855 44.0081 34.424C43.3441 34.424 43.1 34.635 42.981 35.265C42.609 37.227 42.1921 39.181 41.7561 41.13C41.7051 41.357 41.4291 41.703 41.2561 41.706C38.9841 41.745 36.7111 41.732 34.3351 41.732M44.3891 28.71C45.4131 28.71 46.3041 28.772 47.1821 28.693C48.0617 28.6401 48.9312 28.4769 49.7701 28.207C50.2546 28.0139 50.654 27.6538 50.8959 27.1917C51.1379 26.7296 51.2064 26.1962 51.0891 25.688C51.0592 25.2355 50.8592 24.8111 50.5291 24.5002C50.1991 24.1892 49.7635 24.0148 49.3101 24.012C48.0521 23.888 46.7731 23.983 45.4101 23.983L44.3891 28.71Z" fill="white"/>
<path d="M44.3892 28.708L45.4102 23.981C46.7732 23.981 48.0532 23.881 49.3102 24.01C49.7636 24.0128 50.1992 24.1872 50.5292 24.4982C50.8593 24.8091 51.0594 25.2335 51.0892 25.686C51.2065 26.1942 51.138 26.7276 50.8961 27.1897C50.6541 27.6518 50.2547 28.0119 49.7702 28.205C48.9313 28.4749 48.0618 28.6382 47.1822 28.691C46.3042 28.77 45.4132 28.708 44.3892 28.708Z" fill="black"/>
<path d="M24.295 41.697C24.734 39.544 25.137 37.534 25.554 35.526C26.7233 29.9046 27.8956 24.2843 29.071 18.665C29.292 17.604 29.282 17.597 30.323 17.595C31.923 17.595 33.529 17.589 35.132 17.595C35.946 17.595 35.958 17.615 35.796 18.395C34.766 23.3703 33.7326 28.3447 32.696 33.318C32.1786 35.8047 31.6586 38.2906 31.136 40.776C30.948 41.676 30.951 41.686 30.088 41.689C28.211 41.695 26.3329 41.689 24.2939 41.689" fill="#F45E32"/>
<path d="M26.7352 17.596C26.1592 20.352 25.6252 22.905 25.0932 25.456C24.0419 30.4966 22.9912 35.5377 21.9412 40.579C21.9122 40.715 21.8762 40.851 21.8582 40.988C21.7882 41.523 21.5182 41.737 20.9582 41.712C19.9532 41.668 18.9452 41.699 17.8912 41.699C17.8728 40.9609 17.9786 40.225 18.2042 39.522C19.6495 32.5367 21.1085 25.5543 22.5812 18.575C22.7812 17.603 22.7812 17.6 23.8032 17.596C24.7372 17.596 25.6712 17.596 26.7392 17.596" fill="#F45E32"/>
<path d="M14.5832 41.7C13.5042 41.7 13.5082 41.7 13.7362 40.6C15.2622 33.243 16.8012 25.888 18.2922 18.523C18.4852 17.569 18.5502 17.596 19.4262 17.591C20.7182 17.584 20.7262 17.585 20.4592 18.891C19.7222 22.433 18.9592 25.971 18.2312 29.514C17.4852 33.124 16.7602 36.739 16.0252 40.352C16.0122 40.42 15.9932 40.487 15.9792 40.552C15.7292 41.695 15.7292 41.695 14.5792 41.695" fill="#F45E32"/>
</g>
<g clip-path="url(#clip1_155_4447)">
<path d="M229.5 41.4167C229.088 41.4167 228.685 41.5389 228.343 41.7678C228 41.9967 227.733 42.3221 227.576 42.7028C227.418 43.0834 227.377 43.5023 227.457 43.9065C227.537 44.3106 227.736 44.6818 228.027 44.9732C228.319 45.2645 228.69 45.4629 229.094 45.5433C229.498 45.6237 229.917 45.5825 230.298 45.4248C230.678 45.2671 231.004 45.0001 231.233 44.6575C231.461 44.3149 231.584 43.9121 231.584 43.5C231.584 43.2264 231.53 42.9555 231.425 42.7028C231.32 42.45 231.167 42.2203 230.973 42.0269C230.78 41.8334 230.55 41.68 230.298 41.5753C230.045 41.4706 229.774 41.4167 229.5 41.4167ZM229.5 45.1667C229.171 45.1667 228.848 45.0689 228.574 44.8858C228.3 44.7027 228.087 44.4424 227.961 44.1378C227.834 43.8333 227.801 43.4982 227.866 43.1749C227.93 42.8516 228.089 42.5546 228.322 42.3215C228.555 42.0884 228.852 41.9297 229.175 41.8654C229.498 41.8011 229.834 41.8341 230.138 41.9602C230.443 42.0864 230.703 42.3 230.886 42.5741C231.069 42.8482 231.167 43.1704 231.167 43.5C231.167 43.942 230.991 44.366 230.679 44.6785C230.366 44.9911 229.942 45.1667 229.5 45.1667ZM229.552 43.7646H229.252V44.4375H228.875V42.6063H229.554C229.733 42.5953 229.909 42.6461 230.054 42.75C230.114 42.8007 230.162 42.8649 230.192 42.9374C230.222 43.0098 230.235 43.0884 230.229 43.1667C230.234 43.2766 230.205 43.3852 230.148 43.4792C230.089 43.572 230.004 43.6447 229.902 43.6875L230.298 44.4354V44.4563H229.894L229.552 43.7834M229.252 43.4792H229.557C229.636 43.4837 229.714 43.4576 229.775 43.4063C229.803 43.3795 229.824 43.3469 229.837 43.3108C229.851 43.2748 229.856 43.2362 229.852 43.1979C229.856 43.16 229.851 43.1219 229.838 43.086C229.826 43.0501 229.806 43.0173 229.779 42.9896C229.749 42.9627 229.713 42.9424 229.675 42.9299C229.636 42.9173 229.595 42.9128 229.554 42.9167H229.252V43.4792Z" fill="white"/>
</g>
</g>
<defs>
<clipPath id="clip0_155_4447">
<rect width="235.523" height="61.115" fill="white"/>
</clipPath>
<clipPath id="clip1_155_4447">
<rect width="5" height="5" fill="white" transform="translate(227 41)"/>
</clipPath>
</defs>
</svg>
